<svg width="1280" height="832" viewBox="0 0 1280 832" fill="none" xmlns="http://www.w3.org/2000/svg">
<rect x="853" y="94" width="6" height="6" fill="white" fill-opacity="0.25"/>
<rect x="853" y="121" width="6" height="6" fill="white" fill-opacity="0.25"/>
<rect x="853" y="148" width="6" height="6" fill="white" fill-opacity="0.25"/>
<rect x="853" y="175" width="6" height="6" fill="white" fill-opacity="0.25"/>
<rect x="853" y="202" width="6" height="6" fill="white" fill-opacity="0.25"/>
<rect x="853" y="229" width="6" height="6" fill="white" fill-opacity="0.25"/>
<rect x="853" y="256" width="6" height="6" fill="white" fill-opacity="0.25"/>
<rect x="853" y="283" width="6" height="6" fill="white" fill-opacity="0.25"/>
<rect x="853" y="310" width="6" height="6" fill="white" fill-opacity="0.25"/>
<rect x="853" y="337" width="6" height="6" fill="white" fill-opacity="0.25"/>
<rect x="853" y="364" width="6" height="6" fill="white" fill-opacity="0.25"/>
<rect x="853" y="391" width="6" height="6" fill="white" fill-opacity="0.25"/>
<rect x="853" y="418" width="6" height="6" fill="white" fill-opacity="0.25"/>
<rect x="853" y="445" width="6" height="6" fill="white" fill-opacity="0.25"/>
<rect x="853" y="472" width="6" height="6" fill="white" fill-opacity="0.25"/>
<rect x="853" y="499" width="6" height="6" fill="white" fill-opacity="0.25"/>
<rect x="853" y="526" width="6" height="6" fill="white" fill-opacity="0.25"/>
<rect x="853" y="553" width="6" height="6" fill="white" fill-opacity="0.25"/>
<rect x="853" y="580" width="6" height="6" fill="white" fill-opacity="0.25"/>
<rect x="882" y="94" width="6" height="6" fill="white" fill-opacity="0.25"/>
<rect x="882" y="121" width="6" height="6" fill="white" fill-opacity="0.25"/>
<rect x="882" y="148" width="6" height="6" fill="white" fill-opacity="0.25"/>
<rect x="882" y="175" width="6" height="6" fill="white" fill-opacity="0.25"/>
<rect x="882" y="202" width="6" height="6" fill="white" fill-opacity="0.25"/>
<rect x="882" y="229" width="6" height="6" fill="white" fill-opacity="0.25"/>
<rect x="882" y="256" width="6" height="6" fill="white" fill-opacity="0.25"/>
<rect x="882" y="283" width="6" height="6" fill="white" fill-opacity="0.25"/>
<rect x="882" y="310" width="6" height="6" fill="white" fill-opacity="0.25"/>
<rect x="882" y="337" width="6" height="6" fill="white" fill-opacity="0.25"/>
<rect x="882" y="364" width="6" height="6" fill="white" fill-opacity="0.25"/>
<rect x="882" y="391" width="6" height="6" fill="white" fill-opacity="0.25"/>
<rect x="882" y="418" width="6" height="6" fill="white" fill-opacity="0.25"/>
<rect x="882" y="445" width="6" height="6" fill="white" fill-opacity="0.25"/>
<rect x="882" y="472" width="6" height="6" fill="white" fill-opacity="0.25"/>
<rect x="882" y="499" width="6" height="6" fill="white" fill-opacity="0.25"/>
<rect x="882" y="526" width="6" height="6" fill="white" fill-opacity="0.25"/>
<rect x="882" y="553" width="6" height="6" fill="white" fill-opacity="0.25"/>
<rect x="882" y="580" width="6" height="6" fill="white" fill-opacity="0.25"/>
<rect x="911" y="94" width="6" height="6" fill="white" fill-opacity="0.25"/>
<rect x="911" y="121" width="6" height="6" fill="white" fill-opacity="0.25"/>
<rect x="911" y="148" width="6" height="6" fill="white" fill-opacity="0.25"/>
<rect x="911" y="175" width="6" height="6" fill="white" fill-opacity="0.25"/>
<rect x="911" y="202" width="6" height="6" fill="white" fill-opacity="0.25"/>
<rect x="911" y="229" width="6" height="6" fill="white" fill-opacity="0.25"/>
<rect x="911" y="256" width="6" height="6" fill="white" fill-opacity="0.25"/>
<rect x="911" y="283" width="6" height="6" fill="white" fill-opacity="0.25"/>
<rect x="911" y="310" width="6" height="6" fill="white" fill-opacity="0.25"/>
<rect x="911" y="337" width="6" height="6" fill="white" fill-opacity="0.25"/>
<rect x="911" y="364" width="6" height="6" fill="white" fill-opacity="0.25"/>
<rect x="911" y="391" width="6" height="6" fill="white" fill-opacity="0.25"/>
<rect x="911" y="418" width="6" height="6" fill="white" fill-opacity="0.25"/>
<rect x="911" y="445" width="6" height="6" fill="white" fill-opacity="0.25"/>
<rect x="911" y="472" width="6" height="6" fill="white" fill-opacity="0.25"/>
<rect x="911" y="499" width="6" height="6" fill="white" fill-opacity="0.25"/>
<rect x="911" y="526" width="6" height="6" fill="white" fill-opacity="0.25"/>
<rect x="911" y="553" width="6" height="6" fill="white" fill-opacity="0.25"/>
<rect x="911" y="580" width="6" height="6" fill="white" fill-opacity="0.25"/>
<rect x="940" y="94" width="6" height="6" fill="white" fill-opacity="0.25"/>
<rect x="940" y="121" width="6" height="6" fill="white" fill-opacity="0.25"/>
<rect x="940" y="148" width="6" height="6" fill="white" fill-opacity="0.25"/>
<rect x="940" y="175" width="6" height="6" fill="white" fill-opacity="0.25"/>
<rect x="940" y="202" width="6" height="6" fill="white" fill-opacity="0.25"/>
<rect x="940" y="229" width="6" height="6" fill="white" fill-opacity="0.25"/>
<rect x="940" y="256" width="6" height="6" fill="white" fill-opacity="0.25"/>
<rect x="940" y="283" width="6" height="6" fill="white" fill-opacity="0.25"/>
<rect x="940" y="310" width="6" height="6" fill="white" fill-opacity="0.25"/>
<rect x="940" y="337" width="6" height="6" fill="white" fill-opacity="0.25"/>
<rect x="940" y="364" width="6" height="6" fill="white" fill-opacity="0.25"/>
<rect x="940" y="391" width="6" height="6" fill="white" fill-opacity="0.25"/>
<rect x="940" y="418" width="6" height="6" fill="white" fill-opacity="0.25"/>
<rect x="940" y="445" width="6" height="6" fill="white" fill-opacity="0.25"/>
<rect x="940" y="472" width="6" height="6" fill="white" fill-opacity="0.25"/>
<rect x="940" y="499" width="6" height="6" fill="white" fill-opacity="0.25"/>
<rect x="940" y="526" width="6" height="6" fill="white" fill-opacity="0.25"/>
<rect x="940" y="553" width="6" height="6" fill="white" fill-opacity="0.25"/>
<rect x="940" y="580" width="6" height="6" fill="white" fill-opacity="0.25"/>
<rect x="969" y="94" width="6" height="6" fill="white" fill-opacity="0.25"/>
<rect x="969" y="121" width="6" height="6" fill="white" fill-opacity="0.25"/>
<rect x="969" y="148" width="6" height="6" fill="white" fill-opacity="0.25"/>
<rect x="969" y="175" width="6" height="6" fill="white" fill-opacity="0.25"/>
<rect x="969" y="202" width="6" height="6" fill="white" fill-opacity="0.25"/>
<rect x="969" y="229" width="6" height="6" fill="white" fill-opacity="0.25"/>
<rect x="969" y="256" width="6" height="6" fill="white" fill-opacity="0.25"/>
<rect x="969" y="283" width="6" height="6" fill="white" fill-opacity="0.25"/>
<rect x="969" y="310" width="6" height="6" fill="white" fill-opacity="0.25"/>
<rect x="969" y="337" width="6" height="6" fill="white" fill-opacity="0.25"/>
<rect x="969" y="364" width="6" height="6" fill="white" fill-opacity="0.25"/>
<rect x="969" y="391" width="6" height="6" fill="white" fill-opacity="0.25"/>
<rect x="969" y="418" width="6" height="6" fill="white" fill-opacity="0.25"/>
<rect x="969" y="445" width="6" height="6" fill="white" fill-opacity="0.25"/>
<rect x="969" y="472" width="6" height="6" fill="white" fill-opacity="0.25"/>
<rect x="969" y="499" width="6" height="6" fill="white" fill-opacity="0.25"/>
<rect x="969" y="526" width="6" height="6" fill="white" fill-opacity="0.25"/>
<rect x="969" y="553" width="6" height="6" fill="white" fill-opacity="0.25"/>
<rect x="969" y="580" width="6" height="6" fill="white" fill-opacity="0.25"/>
<rect x="998" y="94" width="6" height="6" fill="white" fill-opacity="0.25"/>
<rect x="998" y="121" width="6" height="6" fill="white" fill-opacity="0.25"/>
<rect x="998" y="148" width="6" height="6" fill="white" fill-opacity="0.25"/>
<rect x="998" y="175" width="6" height="6" fill="white" fill-opacity="0.25"/>
<rect x="998" y="202" width="6" height="6" fill="white" fill-opacity="0.25"/>
<rect x="998" y="229" width="6" height="6" fill="white" fill-opacity="0.25"/>
<rect x="998" y="256" width="6" height="6" fill="white" fill-opacity="0.25"/>
<rect x="998" y="283" width="6" height="6" fill="white" fill-opacity="0.25"/>
<rect x="998" y="310" width="6" height="6" fill="white" fill-opacity="0.25"/>
<rect x="998" y="337" width="6" height="6" fill="white" fill-opacity="0.25"/>
<rect x="998" y="364" width="6" height="6" fill="white" fill-opacity="0.25"/>
<rect x="998" y="391" width="6" height="6" fill="white" fill-opacity="0.25"/>
<rect x="998" y="418" width="6" height="6" fill="white" fill-opacity="0.25"/>
<rect x="998" y="445" width="6" height="6" fill="white" fill-opacity="0.25"/>
<rect x="998" y="472" width="6" height="6" fill="white" fill-opacity="0.25"/>
<rect x="998" y="499" width="6" height="6" fill="white" fill-opacity="0.25"/>
<rect x="998" y="526" width="6" height="6" fill="white" fill-opacity="0.25"/>
<rect x="998" y="553" width="6" height="6" fill="white" fill-opacity="0.25"/>
<rect x="998" y="580" width="6" height="6" fill="white" fill-opacity="0.25"/>
<rect x="1027" y="94" width="6" height="6" fill="white" fill-opacity="0.25"/>
<rect x="1027" y="121" width="6" height="6" fill="white" fill-opacity="0.25"/>
<rect x="1027" y="148" width="6" height="6" fill="white" fill-opacity="0.25"/>
<rect x="1027" y="175" width="6" height="6" fill="white" fill-opacity="0.25"/>
<rect x="1027" y="202" width="6" height="6" fill="white" fill-opacity="0.25"/>
<rect x="1027" y="229" width="6" height="6" fill="white" fill-opacity="0.25"/>
<rect x="1027" y="256" width="6" height="6" fill="white" fill-opacity="0.25"/>
<rect x="1027" y="283" width="6" height="6" fill="white" fill-opacity="0.25"/>
<rect x="1027" y="310" width="6" height="6" fill="white" fill-opacity="0.25"/>
<rect x="1027" y="337" width="6" height="6" fill="white" fill-opacity="0.25"/>
<rect x="1027" y="364" width="6" height="6" fill="white" fill-opacity="0.25"/>
<rect x="1027" y="391" width="6" height="6" fill="white" fill-opacity="0.25"/>
<rect x="1027" y="418" width="6" height="6" fill="white" fill-opacity="0.25"/>
<rect x="1027" y="445" width="6" height="6" fill="white" fill-opacity="0.25"/>
<rect x="1027" y="472" width="6" height="6" fill="white" fill-opacity="0.25"/>
<rect x="1027" y="499" width="6" height="6" fill="white" fill-opacity="0.25"/>
<rect x="1027" y="526" width="6" height="6" fill="white" fill-opacity="0.25"/>
<rect x="1027" y="553" width="6" height="6" fill="white" fill-opacity="0.25"/>
<rect x="1027" y="580" width="6" height="6" fill="white" fill-opacity="0.25"/>
<rect x="1056" y="94" width="6" height="6" fill="white" fill-opacity="0.25"/>
<rect x="1056" y="121" width="6" height="6" fill="white" fill-opacity="0.25"/>
<rect x="1056" y="148" width="6" height="6" fill="white" fill-opacity="0.25"/>
<rect x="1056" y="175" width="6" height="6" fill="white" fill-opacity="0.25"/>
<rect x="1056" y="202" width="6" height="6" fill="white" fill-opacity="0.25"/>
<rect x="1056" y="229" width="6" height="6" fill="white" fill-opacity="0.25"/>
<rect x="1056" y="256" width="6" height="6" fill="white" fill-opacity="0.25"/>
<rect x="1056" y="283" width="6" height="6" fill="white" fill-opacity="0.25"/>
<rect x="1056" y="310" width="6" height="6" fill="white" fill-opacity="0.25"/>
<rect x="1056" y="337" width="6" height="6" fill="white" fill-opacity="0.25"/>
<rect x="1056" y="364" width="6" height="6" fill="white" fill-opacity="0.25"/>
<rect x="1056" y="391" width="6" height="6" fill="white" fill-opacity="0.25"/>
<rect x="1056" y="418" width="6" height="6" fill="white" fill-opacity="0.25"/>
<rect x="1056" y="445" width="6" height="6" fill="white" fill-opacity="0.25"/>
<rect x="1056" y="472" width="6" height="6" fill="white" fill-opacity="0.25"/>
<rect x="1056" y="499" width="6" height="6" fill="white" fill-opacity="0.25"/>
<rect x="1056" y="526" width="6" height="6" fill="white" fill-opacity="0.25"/>
<rect x="1056" y="553" width="6" height="6" fill="white" fill-opacity="0.25"/>
<rect x="1056" y="580" width="6" height="6" fill="white" fill-opacity="0.25"/>
<rect x="1085" y="94" width="6" height="6" fill="white" fill-opacity="0.25"/>
<rect x="1085" y="121" width="6" height="6" fill="white" fill-opacity="0.25"/>
<rect x="1085" y="148" width="6" height="6" fill="white" fill-opacity="0.25"/>
<rect x="1085" y="175" width="6" height="6" fill="white" fill-opacity="0.25"/>
<rect x="1085" y="202" width="6" height="6" fill="white" fill-opacity="0.25"/>
<rect x="1085" y="229" width="6" height="6" fill="white" fill-opacity="0.25"/>
<rect x="1085" y="256" width="6" height="6" fill="white" fill-opacity="0.25"/>
<rect x="1085" y="283" width="6" height="6" fill="white" fill-opacity="0.25"/>
<rect x="1085" y="310" width="6" height="6" fill="white" fill-opacity="0.25"/>
<rect x="1085" y="337" width="6" height="6" fill="white" fill-opacity="0.25"/>
<rect x="1085" y="364" width="6" height="6" fill="white" fill-opacity="0.25"/>
<rect x="1085" y="391" width="6" height="6" fill="white" fill-opacity="0.25"/>
<rect x="1085" y="418" width="6" height="6" fill="white" fill-opacity="0.25"/>
<rect x="1085" y="445" width="6" height="6" fill="white" fill-opacity="0.25"/>
<rect x="1085" y="472" width="6" height="6" fill="white" fill-opacity="0.25"/>
<rect x="1085" y="499" width="6" height="6" fill="white" fill-opacity="0.25"/>
<rect x="1085" y="526" width="6" height="6" fill="white" fill-opacity="0.25"/>
<rect x="1085" y="553" width="6" height="6" fill="white" fill-opacity="0.25"/>
<rect x="1085" y="580" width="6" height="6" fill="white" fill-opacity="0.25"/>
<rect x="1114" y="94" width="6" height="6" fill="white" fill-opacity="0.25"/>
<rect x="1114" y="121" width="6" height="6" fill="white" fill-opacity="0.25"/>
<rect x="1114" y="148" width="6" height="6" fill="white" fill-opacity="0.25"/>
<rect x="1114" y="175" width="6" height="6" fill="white" fill-opacity="0.25"/>
<rect x="1114" y="202" width="6" height="6" fill="white" fill-opacity="0.25"/>
<rect x="1114" y="229" width="6" height="6" fill="white" fill-opacity="0.25"/>
<rect x="1114" y="256" width="6" height="6" fill="white" fill-opacity="0.25"/>
<rect x="1114" y="283" width="6" height="6" fill="white" fill-opacity="0.25"/>
<rect x="1114" y="310" width="6" height="6" fill="white" fill-opacity="0.25"/>
<rect x="1114" y="337" width="6" height="6" fill="white" fill-opacity="0.25"/>
<rect x="1114" y="364" width="6" height="6" fill="white" fill-opacity="0.25"/>
<rect x="1114" y="391" width="6" height="6" fill="white" fill-opacity="0.25"/>
<rect x="1114" y="418" width="6" height="6" fill="white" fill-opacity="0.25"/>
<rect x="1114" y="445" width="6" height="6" fill="white" fill-opacity="0.25"/>
<rect x="1114" y="472" width="6" height="6" fill="white" fill-opacity="0.25"/>
<rect x="1114" y="499" width="6" height="6" fill="white" fill-opacity="0.25"/>
<rect x="1114" y="526" width="6" height="6" fill="white" fill-opacity="0.25"/>
<rect x="1114" y="553" width="6" height="6" fill="white" fill-opacity="0.25"/>
<rect x="1114" y="580" width="6" height="6" fill="white" fill-opacity="0.25"/>
</svg>
