<svg width="1280" height="832" viewBox="0 0 1280 832" fill="none" xmlns="http://www.w3.org/2000/svg">
<rect x="248" y="283" width="6" height="6" rx="3" fill="black" fill-opacity="0.25"/>
<rect x="248" y="310" width="6" height="6" rx="3" fill="black" fill-opacity="0.25"/>
<rect x="248" y="337" width="6" height="6" rx="3" fill="black" fill-opacity="0.25"/>
<rect x="248" y="364" width="6" height="6" rx="3" fill="black" fill-opacity="0.25"/>
<rect x="248" y="391" width="6" height="6" rx="3" fill="black" fill-opacity="0.25"/>
<rect x="248" y="418" width="6" height="6" rx="3" fill="black" fill-opacity="0.25"/>
<rect x="248" y="445" width="6" height="6" rx="3" fill="black" fill-opacity="0.25"/>
<rect x="248" y="472" width="6" height="6" rx="3" fill="black" fill-opacity="0.25"/>
<rect x="248" y="499" width="6" height="6" rx="3" fill="black" fill-opacity="0.25"/>
<rect x="248" y="526" width="6" height="6" rx="3" fill="black" fill-opacity="0.25"/>
<rect x="248" y="553" width="6" height="6" rx="3" fill="black" fill-opacity="0.25"/>
<rect x="248" y="580" width="6" height="6" rx="3" fill="black" fill-opacity="0.25"/>
<rect x="248" y="607" width="6" height="6" rx="3" fill="black" fill-opacity="0.25"/>
<rect x="248" y="634" width="6" height="6" rx="3" fill="black" fill-opacity="0.25"/>
<rect x="248" y="661" width="6" height="6" rx="3" fill="black" fill-opacity="0.25"/>
<rect x="248" y="688" width="6" height="6" rx="3" fill="black" fill-opacity="0.25"/>
<rect x="248" y="715" width="6" height="6" rx="3" fill="black" fill-opacity="0.25"/>
<rect x="277" y="283" width="6" height="6" rx="3" fill="black" fill-opacity="0.25"/>
<rect x="277" y="310" width="6" height="6" rx="3" fill="black" fill-opacity="0.25"/>
<rect x="277" y="337" width="6" height="6" rx="3" fill="black" fill-opacity="0.25"/>
<rect x="277" y="364" width="6" height="6" rx="3" fill="black" fill-opacity="0.25"/>
<rect x="277" y="391" width="6" height="6" rx="3" fill="black" fill-opacity="0.25"/>
<rect x="277" y="418" width="6" height="6" rx="3" fill="black" fill-opacity="0.25"/>
<rect x="277" y="445" width="6" height="6" rx="3" fill="black" fill-opacity="0.25"/>
<rect x="277" y="472" width="6" height="6" rx="3" fill="black" fill-opacity="0.25"/>
<rect x="277" y="499" width="6" height="6" rx="3" fill="black" fill-opacity="0.25"/>
<rect x="277" y="526" width="6" height="6" rx="3" fill="black" fill-opacity="0.25"/>
<rect x="277" y="553" width="6" height="6" rx="3" fill="black" fill-opacity="0.25"/>
<rect x="277" y="580" width="6" height="6" rx="3" fill="black" fill-opacity="0.25"/>
<rect x="277" y="607" width="6" height="6" rx="3" fill="black" fill-opacity="0.25"/>
<rect x="277" y="634" width="6" height="6" rx="3" fill="black" fill-opacity="0.25"/>
<rect x="277" y="661" width="6" height="6" rx="3" fill="black" fill-opacity="0.25"/>
<rect x="277" y="688" width="6" height="6" rx="3" fill="black" fill-opacity="0.25"/>
<rect x="277" y="715" width="6" height="6" rx="3" fill="black" fill-opacity="0.25"/>
<rect x="306" y="283" width="6" height="6" rx="3" fill="black" fill-opacity="0.25"/>
<rect x="306" y="310" width="6" height="6" rx="3" fill="black" fill-opacity="0.25"/>
<rect x="306" y="337" width="6" height="6" rx="3" fill="black" fill-opacity="0.25"/>
<rect x="306" y="364" width="6" height="6" rx="3" fill="black" fill-opacity="0.25"/>
<rect x="306" y="391" width="6" height="6" rx="3" fill="black" fill-opacity="0.25"/>
<rect x="306" y="418" width="6" height="6" rx="3" fill="black" fill-opacity="0.25"/>
<rect x="306" y="445" width="6" height="6" rx="3" fill="black" fill-opacity="0.25"/>
<rect x="306" y="472" width="6" height="6" rx="3" fill="black" fill-opacity="0.25"/>
<rect x="306" y="499" width="6" height="6" rx="3" fill="black" fill-opacity="0.25"/>
<rect x="306" y="526" width="6" height="6" rx="3" fill="black" fill-opacity="0.25"/>
<rect x="306" y="553" width="6" height="6" rx="3" fill="black" fill-opacity="0.25"/>
<rect x="306" y="580" width="6" height="6" rx="3" fill="black" fill-opacity="0.25"/>
<rect x="306" y="607" width="6" height="6" rx="3" fill="black" fill-opacity="0.25"/>
<rect x="306" y="634" width="6" height="6" rx="3" fill="black" fill-opacity="0.25"/>
<rect x="306" y="661" width="6" height="6" rx="3" fill="black" fill-opacity="0.25"/>
<rect x="306" y="688" width="6" height="6" rx="3" fill="black" fill-opacity="0.25"/>
<rect x="306" y="715" width="6" height="6" rx="3" fill="black" fill-opacity="0.25"/>
<rect x="335" y="283" width="6" height="6" rx="3" fill="black" fill-opacity="0.25"/>
<rect x="335" y="310" width="6" height="6" rx="3" fill="black" fill-opacity="0.25"/>
<rect x="335" y="337" width="6" height="6" rx="3" fill="black" fill-opacity="0.25"/>
<rect x="335" y="364" width="6" height="6" rx="3" fill="black" fill-opacity="0.25"/>
<rect x="335" y="391" width="6" height="6" rx="3" fill="black" fill-opacity="0.25"/>
<rect x="335" y="418" width="6" height="6" rx="3" fill="black" fill-opacity="0.25"/>
<rect x="335" y="445" width="6" height="6" rx="3" fill="black" fill-opacity="0.25"/>
<rect x="335" y="472" width="6" height="6" rx="3" fill="black" fill-opacity="0.25"/>
<rect x="335" y="499" width="6" height="6" rx="3" fill="black" fill-opacity="0.25"/>
<rect x="335" y="526" width="6" height="6" rx="3" fill="black" fill-opacity="0.25"/>
<rect x="335" y="553" width="6" height="6" rx="3" fill="black" fill-opacity="0.25"/>
<rect x="335" y="580" width="6" height="6" rx="3" fill="black" fill-opacity="0.25"/>
<rect x="335" y="607" width="6" height="6" rx="3" fill="black" fill-opacity="0.25"/>
<rect x="335" y="634" width="6" height="6" rx="3" fill="black" fill-opacity="0.25"/>
<rect x="335" y="661" width="6" height="6" rx="3" fill="black" fill-opacity="0.25"/>
<rect x="335" y="688" width="6" height="6" rx="3" fill="black" fill-opacity="0.25"/>
<rect x="335" y="715" width="6" height="6" rx="3" fill="black" fill-opacity="0.25"/>
<rect x="364" y="283" width="6" height="6" rx="3" fill="black" fill-opacity="0.25"/>
<rect x="364" y="310" width="6" height="6" rx="3" fill="black" fill-opacity="0.25"/>
<rect x="364" y="337" width="6" height="6" rx="3" fill="black" fill-opacity="0.25"/>
<rect x="364" y="364" width="6" height="6" rx="3" fill="black" fill-opacity="0.25"/>
<rect x="364" y="391" width="6" height="6" rx="3" fill="black" fill-opacity="0.25"/>
<rect x="364" y="418" width="6" height="6" rx="3" fill="black" fill-opacity="0.25"/>
<rect x="364" y="445" width="6" height="6" rx="3" fill="black" fill-opacity="0.25"/>
<rect x="364" y="472" width="6" height="6" rx="3" fill="black" fill-opacity="0.25"/>
<rect x="364" y="499" width="6" height="6" rx="3" fill="black" fill-opacity="0.25"/>
<rect x="364" y="526" width="6" height="6" rx="3" fill="black" fill-opacity="0.25"/>
<rect x="364" y="553" width="6" height="6" rx="3" fill="black" fill-opacity="0.25"/>
<rect x="364" y="580" width="6" height="6" rx="3" fill="black" fill-opacity="0.25"/>
<rect x="364" y="607" width="6" height="6" rx="3" fill="black" fill-opacity="0.25"/>
<rect x="364" y="634" width="6" height="6" rx="3" fill="black" fill-opacity="0.25"/>
<rect x="364" y="661" width="6" height="6" rx="3" fill="black" fill-opacity="0.25"/>
<rect x="364" y="688" width="6" height="6" rx="3" fill="black" fill-opacity="0.25"/>
<rect x="364" y="715" width="6" height="6" rx="3" fill="black" fill-opacity="0.25"/>
<rect x="393" y="283" width="6" height="6" rx="3" fill="black" fill-opacity="0.25"/>
<rect x="393" y="310" width="6" height="6" rx="3" fill="black" fill-opacity="0.25"/>
<rect x="393" y="337" width="6" height="6" rx="3" fill="black" fill-opacity="0.25"/>
<rect x="393" y="364" width="6" height="6" rx="3" fill="black" fill-opacity="0.25"/>
<rect x="393" y="391" width="6" height="6" rx="3" fill="black" fill-opacity="0.25"/>
<rect x="393" y="418" width="6" height="6" rx="3" fill="black" fill-opacity="0.25"/>
<rect x="393" y="445" width="6" height="6" rx="3" fill="black" fill-opacity="0.25"/>
<rect x="393" y="472" width="6" height="6" rx="3" fill="black" fill-opacity="0.25"/>
<rect x="393" y="499" width="6" height="6" rx="3" fill="black" fill-opacity="0.25"/>
<rect x="393" y="526" width="6" height="6" rx="3" fill="black" fill-opacity="0.25"/>
<rect x="393" y="553" width="6" height="6" rx="3" fill="black" fill-opacity="0.25"/>
<rect x="393" y="580" width="6" height="6" rx="3" fill="black" fill-opacity="0.25"/>
<rect x="393" y="607" width="6" height="6" rx="3" fill="black" fill-opacity="0.25"/>
<rect x="393" y="634" width="6" height="6" rx="3" fill="black" fill-opacity="0.25"/>
<rect x="393" y="661" width="6" height="6" rx="3" fill="black" fill-opacity="0.25"/>
<rect x="393" y="688" width="6" height="6" rx="3" fill="black" fill-opacity="0.25"/>
<rect x="393" y="715" width="6" height="6" rx="3" fill="black" fill-opacity="0.25"/>
<rect x="422" y="283" width="6" height="6" rx="3" fill="black" fill-opacity="0.25"/>
<rect x="422" y="310" width="6" height="6" rx="3" fill="black" fill-opacity="0.25"/>
<rect x="422" y="337" width="6" height="6" rx="3" fill="black" fill-opacity="0.25"/>
<rect x="422" y="364" width="6" height="6" rx="3" fill="black" fill-opacity="0.25"/>
<rect x="422" y="391" width="6" height="6" rx="3" fill="black" fill-opacity="0.25"/>
<rect x="422" y="418" width="6" height="6" rx="3" fill="black" fill-opacity="0.25"/>
<rect x="422" y="445" width="6" height="6" rx="3" fill="black" fill-opacity="0.25"/>
<rect x="422" y="472" width="6" height="6" rx="3" fill="black" fill-opacity="0.25"/>
<rect x="422" y="499" width="6" height="6" rx="3" fill="black" fill-opacity="0.25"/>
<rect x="422" y="526" width="6" height="6" rx="3" fill="black" fill-opacity="0.25"/>
<rect x="422" y="553" width="6" height="6" rx="3" fill="black" fill-opacity="0.25"/>
<rect x="422" y="580" width="6" height="6" rx="3" fill="black" fill-opacity="0.25"/>
<rect x="422" y="607" width="6" height="6" rx="3" fill="black" fill-opacity="0.25"/>
<rect x="422" y="634" width="6" height="6" rx="3" fill="black" fill-opacity="0.25"/>
<rect x="422" y="661" width="6" height="6" rx="3" fill="black" fill-opacity="0.25"/>
<rect x="422" y="688" width="6" height="6" rx="3" fill="black" fill-opacity="0.25"/>
<rect x="422" y="715" width="6" height="6" rx="3" fill="black" fill-opacity="0.25"/>
<rect x="451" y="283" width="6" height="6" rx="3" fill="black" fill-opacity="0.25"/>
<rect x="451" y="310" width="6" height="6" rx="3" fill="black" fill-opacity="0.25"/>
<rect x="451" y="337" width="6" height="6" rx="3" fill="black" fill-opacity="0.25"/>
<rect x="451" y="364" width="6" height="6" rx="3" fill="black" fill-opacity="0.25"/>
<rect x="451" y="391" width="6" height="6" rx="3" fill="black" fill-opacity="0.25"/>
<rect x="451" y="418" width="6" height="6" rx="3" fill="black" fill-opacity="0.25"/>
<rect x="451" y="445" width="6" height="6" rx="3" fill="black" fill-opacity="0.25"/>
<rect x="451" y="472" width="6" height="6" rx="3" fill="black" fill-opacity="0.25"/>
<rect x="451" y="499" width="6" height="6" rx="3" fill="black" fill-opacity="0.25"/>
<rect x="451" y="526" width="6" height="6" rx="3" fill="black" fill-opacity="0.25"/>
<rect x="451" y="553" width="6" height="6" rx="3" fill="black" fill-opacity="0.25"/>
<rect x="451" y="580" width="6" height="6" rx="3" fill="black" fill-opacity="0.25"/>
<rect x="451" y="607" width="6" height="6" rx="3" fill="black" fill-opacity="0.25"/>
<rect x="451" y="634" width="6" height="6" rx="3" fill="black" fill-opacity="0.25"/>
<rect x="451" y="661" width="6" height="6" rx="3" fill="black" fill-opacity="0.25"/>
<rect x="451" y="688" width="6" height="6" rx="3" fill="black" fill-opacity="0.25"/>
<rect x="451" y="715" width="6" height="6" rx="3" fill="black" fill-opacity="0.25"/>
<rect x="480" y="283" width="6" height="6" rx="3" fill="black" fill-opacity="0.25"/>
<rect x="480" y="310" width="6" height="6" rx="3" fill="black" fill-opacity="0.25"/>
<rect x="480" y="337" width="6" height="6" rx="3" fill="black" fill-opacity="0.25"/>
<rect x="480" y="364" width="6" height="6" rx="3" fill="black" fill-opacity="0.25"/>
<rect x="480" y="391" width="6" height="6" rx="3" fill="black" fill-opacity="0.25"/>
<rect x="480" y="418" width="6" height="6" rx="3" fill="black" fill-opacity="0.25"/>
<rect x="480" y="445" width="6" height="6" rx="3" fill="black" fill-opacity="0.25"/>
<rect x="480" y="472" width="6" height="6" rx="3" fill="black" fill-opacity="0.25"/>
<rect x="480" y="499" width="6" height="6" rx="3" fill="black" fill-opacity="0.25"/>
<rect x="480" y="526" width="6" height="6" rx="3" fill="black" fill-opacity="0.25"/>
<rect x="480" y="553" width="6" height="6" rx="3" fill="black" fill-opacity="0.25"/>
<rect x="480" y="580" width="6" height="6" rx="3" fill="black" fill-opacity="0.25"/>
<rect x="480" y="607" width="6" height="6" rx="3" fill="black" fill-opacity="0.25"/>
<rect x="480" y="634" width="6" height="6" rx="3" fill="black" fill-opacity="0.25"/>
<rect x="480" y="661" width="6" height="6" rx="3" fill="black" fill-opacity="0.25"/>
<rect x="480" y="688" width="6" height="6" rx="3" fill="black" fill-opacity="0.25"/>
<rect x="480" y="715" width="6" height="6" rx="3" fill="black" fill-opacity="0.25"/>
<rect x="509" y="283" width="6" height="6" rx="3" fill="black" fill-opacity="0.25"/>
<rect x="509" y="310" width="6" height="6" rx="3" fill="black" fill-opacity="0.25"/>
<rect x="509" y="337" width="6" height="6" rx="3" fill="black" fill-opacity="0.25"/>
<rect x="509" y="364" width="6" height="6" rx="3" fill="black" fill-opacity="0.25"/>
<rect x="509" y="391" width="6" height="6" rx="3" fill="black" fill-opacity="0.25"/>
<rect x="509" y="418" width="6" height="6" rx="3" fill="black" fill-opacity="0.25"/>
<rect x="509" y="445" width="6" height="6" rx="3" fill="black" fill-opacity="0.25"/>
<rect x="509" y="472" width="6" height="6" rx="3" fill="black" fill-opacity="0.25"/>
<rect x="509" y="499" width="6" height="6" rx="3" fill="black" fill-opacity="0.25"/>
<rect x="509" y="526" width="6" height="6" rx="3" fill="black" fill-opacity="0.25"/>
<rect x="509" y="553" width="6" height="6" rx="3" fill="black" fill-opacity="0.25"/>
<rect x="509" y="580" width="6" height="6" rx="3" fill="black" fill-opacity="0.25"/>
<rect x="509" y="607" width="6" height="6" rx="3" fill="black" fill-opacity="0.25"/>
<rect x="509" y="634" width="6" height="6" rx="3" fill="black" fill-opacity="0.25"/>
<rect x="509" y="661" width="6" height="6" rx="3" fill="black" fill-opacity="0.25"/>
<rect x="509" y="688" width="6" height="6" rx="3" fill="black" fill-opacity="0.25"/>
<rect x="509" y="715" width="6" height="6" rx="3" fill="black" fill-opacity="0.25"/>
</svg>
