<svg width="461" height="190" viewBox="0 0 461 190" fill="none" xmlns="http://www.w3.org/2000/svg">
<path d="M210.299 90.9818H189.226C188.965 90.982 188.715 91.0857 188.53 91.2702C188.345 91.4547 188.242 91.7048 188.242 91.9657V102.252C188.242 102.796 188.683 103.237 189.226 103.237H197.447V116.018C197.447 116.018 195.601 116.646 190.498 116.646C184.477 116.646 176.067 114.45 176.067 95.9838C176.067 77.5138 184.825 75.0837 193.047 75.0837C200.164 75.0837 203.23 76.335 205.181 76.9377C205.794 77.1244 206.361 76.5154 206.361 75.9727L208.712 66.0333C208.712 65.7789 208.626 65.4728 208.336 65.2653C207.544 64.7007 202.71 62 190.498 62C176.431 62 162 67.9764 162 96.7039C162 125.432 178.521 129.713 192.444 129.713C203.971 129.713 210.964 124.794 210.964 124.794C211.253 124.636 211.284 124.233 211.284 124.049V91.9657C211.284 91.8365 211.259 91.7086 211.209 91.5892C211.16 91.4698 211.087 91.3614 210.996 91.27C210.904 91.1787 210.796 91.1062 210.676 91.0567C210.557 91.0073 210.428 90.9818 210.299 90.9818ZM318.899 65.4421C318.9 65.3129 318.876 65.1848 318.827 65.0651C318.778 64.9454 318.707 64.8365 318.616 64.7445C318.525 64.6526 318.417 64.5796 318.297 64.5295C318.178 64.4795 318.05 64.4535 317.921 64.453H306.056C305.926 64.4536 305.798 64.4796 305.678 64.5296C305.559 64.5796 305.451 64.6526 305.359 64.7444C305.268 64.8363 305.196 64.9452 305.147 65.0649C305.098 65.1846 305.073 65.3127 305.073 65.4421L305.076 88.3375H286.582V65.4421C286.582 64.8946 286.145 64.453 285.602 64.453H273.737C273.476 64.4547 273.226 64.5598 273.043 64.7452C272.859 64.9306 272.757 65.1813 272.758 65.4421V127.435C272.758 127.981 273.198 128.427 273.737 128.427H285.602C286.145 128.427 286.582 127.981 286.582 127.435V100.918H305.076L305.044 127.435C305.044 127.981 305.483 128.427 306.027 128.427H317.92C318.463 128.427 318.897 127.981 318.898 127.435L318.899 65.4421ZM232.689 73.577C232.689 69.3117 229.264 65.8644 225.038 65.8644C220.816 65.8644 217.388 69.3117 217.388 73.577C217.388 77.8387 220.816 81.2953 225.038 81.2953C229.264 81.2953 232.689 77.8387 232.689 73.577ZM231.841 114.358V85.7416C231.841 85.1988 231.402 84.7546 230.859 84.7546H219.032C218.489 84.7546 218.003 85.3125 218.003 85.8563V126.855C218.003 128.059 218.755 128.418 219.728 128.418H230.385C231.554 128.418 231.841 127.844 231.841 126.835V114.358ZM363.992 84.8474H352.218C351.677 84.8474 351.238 85.2916 351.238 85.8391V116.235C351.238 116.235 348.246 118.421 344.001 118.421C339.756 118.421 338.629 116.497 338.629 112.347V85.8385C338.629 85.2911 338.19 84.8469 337.65 84.8469H325.7C325.161 84.8469 324.719 85.2911 324.719 85.8385V114.353C324.719 126.681 331.601 129.698 341.067 129.698C348.834 129.698 355.096 125.414 355.096 125.414C355.096 125.414 355.394 127.672 355.53 127.939C355.664 128.206 356.015 128.476 356.395 128.476L363.998 128.443C364.536 128.443 364.978 127.997 364.978 127.453L364.974 85.8385C364.974 85.2911 364.534 84.8474 363.992 84.8474ZM391.529 118.383C387.445 118.259 384.674 116.409 384.674 116.409V96.7768C384.674 96.7768 387.407 95.1043 390.76 94.8055C395 94.4265 399.086 95.7049 399.086 105.804C399.086 116.453 397.243 118.555 391.529 118.383ZM396.173 83.4548C389.485 83.4548 384.937 86.4345 384.937 86.4345V65.4421C384.937 64.8946 384.498 64.453 383.958 64.453H372.059C371.929 64.4537 371.801 64.4798 371.682 64.5299C371.563 64.58 371.455 64.653 371.364 64.7449C371.273 64.8367 371.201 64.9456 371.152 65.0652C371.103 65.1848 371.078 65.3129 371.079 65.4421V127.435C371.079 127.982 371.518 128.427 372.06 128.427H380.316C380.688 128.427 380.969 128.235 381.177 127.9C381.383 127.567 381.679 125.042 381.679 125.042C381.679 125.042 386.544 129.645 395.754 129.645C406.568 129.645 412.769 124.169 412.769 105.06C412.769 85.9522 402.865 83.4548 396.173 83.4548ZM265.942 84.7489H257.042L257.028 73.0082C257.028 72.564 256.799 72.3419 256.284 72.3419H244.156C243.685 72.3419 243.431 72.5494 243.431 73.0019V85.1342C243.431 85.1342 237.353 86.5987 236.942 86.7176C236.737 86.7768 236.557 86.9009 236.429 87.0713C236.3 87.2417 236.231 87.4491 236.231 87.6623V95.2863C236.231 95.8337 236.67 96.2769 237.212 96.2769H243.431V114.618C243.431 128.24 253.001 129.578 259.459 129.578C262.41 129.578 265.94 128.632 266.523 128.417C266.875 128.288 267.08 127.924 267.08 127.529L267.09 119.142C267.09 118.595 266.627 118.151 266.106 118.151C265.587 118.151 264.261 118.363 262.895 118.363C258.523 118.363 257.041 116.333 257.041 113.707V96.2763H265.942C266.072 96.2757 266.2 96.2496 266.319 96.1995C266.439 96.1494 266.547 96.0762 266.639 95.9842C266.73 95.8922 266.802 95.7832 266.851 95.6633C266.9 95.5435 266.925 95.4152 266.924 95.2857V85.7369C266.924 85.1894 266.485 84.7489 265.942 84.7489Z" fill="white"/>
<path fill-rule="evenodd" clip-rule="evenodd" d="M96.7657 49C70.9412 49 50 70.318 50 96.618C50 117.656 63.3998 135.506 81.9814 141.802C84.3184 142.243 85.1765 140.769 85.1765 139.511C85.1765 138.377 85.133 134.625 85.1131 130.646C72.1029 133.526 69.3576 125.027 69.3576 125.027C67.2302 119.524 64.165 118.06 64.165 118.06C59.9219 115.105 64.4849 115.165 64.4849 115.165C69.1809 115.501 71.6536 120.073 71.6536 120.073C75.8247 127.352 82.5938 125.248 85.2626 124.031C85.6832 120.954 86.8943 118.852 88.2318 117.663C77.8443 116.46 66.9251 112.376 66.9251 94.1302C66.9251 88.9322 68.7519 84.6844 71.7436 81.3497C71.258 80.1494 69.6572 75.3063 72.1973 68.7475C72.1973 68.7475 76.1246 67.4683 85.0604 73.6292C88.7909 72.5742 92.7915 72.0449 96.7659 72.0261C100.74 72.044 104.744 72.574 108.481 73.6292C117.407 67.4683 121.329 68.7475 121.329 68.7475C123.875 75.3063 122.274 80.1494 121.788 81.3497C124.787 84.6844 126.6 88.9322 126.6 94.1302C126.6 112.42 115.66 116.447 105.246 117.626C106.924 119.103 108.419 122.001 108.419 126.444C108.419 132.815 108.365 137.943 108.365 139.511C108.365 140.779 109.206 142.264 111.577 141.797C130.149 135.493 143.532 117.65 143.532 96.6183C143.532 70.3177 122.593 49 96.7657 49Z" fill="white"/>
</svg>
