<svg width="451" height="136" viewBox="0 0 451 136" fill="none" xmlns="http://www.w3.org/2000/svg">
<g clip-path="url(#clip0_36_88)">
<rect width="451" height="136" rx="27" fill="url(#paint0_linear_36_88)"/>
<path d="M217.072 90.448C214.128 90.448 211.483 89.936 209.136 88.912C206.832 87.8453 205.019 86.3947 203.696 84.56C202.373 82.6827 201.691 80.528 201.648 78.096H207.856C208.069 80.1867 208.923 81.9573 210.416 83.408C211.952 84.816 214.171 85.52 217.072 85.52C219.845 85.52 222.021 84.8373 223.6 83.472C225.221 82.064 226.032 80.272 226.032 78.096C226.032 76.3893 225.563 75.0027 224.624 73.936C223.685 72.8693 222.512 72.0587 221.104 71.504C219.696 70.9493 217.797 70.352 215.408 69.712C212.464 68.944 210.096 68.176 208.304 67.408C206.555 66.64 205.04 65.4453 203.76 63.824C202.523 62.16 201.904 59.9413 201.904 57.168C201.904 54.736 202.523 52.5813 203.76 50.704C204.997 48.8267 206.725 47.376 208.944 46.352C211.205 45.328 213.787 44.816 216.688 44.816C220.869 44.816 224.283 45.8613 226.928 47.952C229.616 50.0427 231.131 52.816 231.472 56.272H225.072C224.859 54.5653 223.963 53.072 222.384 51.792C220.805 50.4693 218.715 49.808 216.112 49.808C213.68 49.808 211.696 50.448 210.16 51.728C208.624 52.9653 207.856 54.7147 207.856 56.976C207.856 58.5973 208.304 59.92 209.2 60.944C210.139 61.968 211.269 62.7573 212.592 63.312C213.957 63.824 215.856 64.4213 218.288 65.104C221.232 65.9147 223.6 66.7253 225.392 67.536C227.184 68.304 228.72 69.52 230 71.184C231.28 72.8053 231.92 75.024 231.92 77.84C231.92 80.016 231.344 82.064 230.192 83.984C229.04 85.904 227.333 87.4613 225.072 88.656C222.811 89.8507 220.144 90.448 217.072 90.448ZM247.595 59.728V80.4C247.595 82.1067 247.957 83.3227 248.683 84.048C249.408 84.7307 250.667 85.072 252.458 85.072H256.747V90H251.499C248.256 90 245.824 89.2533 244.203 87.76C242.581 86.2667 241.771 83.8133 241.771 80.4V59.728H237.227V54.928H241.771V46.096H247.595V54.928H256.747V59.728H247.595ZM261.627 72.336C261.627 68.752 262.352 65.616 263.803 62.928C265.254 60.1973 267.238 58.0853 269.755 56.592C272.315 55.0987 275.152 54.352 278.267 54.352C281.339 54.352 284.006 55.0133 286.267 56.336C288.528 57.6587 290.214 59.3227 291.323 61.328V54.928H297.211V90H291.323V83.472C290.171 85.52 288.443 87.2267 286.139 88.592C283.878 89.9147 281.232 90.576 278.203 90.576C275.088 90.576 272.272 89.808 269.755 88.272C267.238 86.736 265.254 84.5813 263.803 81.808C262.352 79.0347 261.627 75.8773 261.627 72.336ZM291.323 72.4C291.323 69.7547 290.79 67.4507 289.723 65.488C288.656 63.5253 287.206 62.032 285.371 61.008C283.579 59.9413 281.595 59.408 279.419 59.408C277.243 59.408 275.259 59.92 273.467 60.944C271.675 61.968 270.246 63.4613 269.179 65.424C268.112 67.3867 267.579 69.6907 267.579 72.336C267.579 75.024 268.112 77.3707 269.179 79.376C270.246 81.3387 271.675 82.8533 273.467 83.92C275.259 84.944 277.243 85.456 279.419 85.456C281.595 85.456 283.579 84.944 285.371 83.92C287.206 82.8533 288.656 81.3387 289.723 79.376C290.79 77.3707 291.323 75.0453 291.323 72.4ZM312.877 60.624C313.901 58.6187 315.352 57.0613 317.229 55.952C319.149 54.8427 321.474 54.288 324.205 54.288V60.304H322.669C316.141 60.304 312.877 63.8453 312.877 70.928V90H307.053V54.928H312.877V60.624ZM343.344 90.576C340.656 90.576 338.245 90.128 336.112 89.232C333.979 88.2933 332.293 87.0133 331.056 85.392C329.819 83.728 329.136 81.8293 329.008 79.696H335.024C335.195 81.4453 336.005 82.8747 337.456 83.984C338.949 85.0933 340.891 85.648 343.28 85.648C345.499 85.648 347.248 85.1573 348.528 84.176C349.808 83.1947 350.448 81.9573 350.448 80.464C350.448 78.928 349.765 77.7973 348.4 77.072C347.035 76.304 344.923 75.5573 342.064 74.832C339.461 74.1493 337.328 73.4667 335.664 72.784C334.043 72.0587 332.635 71.0133 331.44 69.648C330.288 68.24 329.712 66.4053 329.712 64.144C329.712 62.352 330.245 60.7093 331.312 59.216C332.379 57.7227 333.893 56.5493 335.856 55.696C337.819 54.8 340.059 54.352 342.576 54.352C346.459 54.352 349.595 55.3333 351.984 57.296C354.373 59.2587 355.653 61.9467 355.824 65.36H350C349.872 63.5253 349.125 62.0533 347.76 60.944C346.437 59.8347 344.645 59.28 342.384 59.28C340.293 59.28 338.629 59.728 337.392 60.624C336.155 61.52 335.536 62.6933 335.536 64.144C335.536 65.296 335.899 66.256 336.624 67.024C337.392 67.7493 338.331 68.3467 339.44 68.816C340.592 69.2427 342.171 69.7333 344.176 70.288C346.693 70.9707 348.741 71.6533 350.32 72.336C351.899 72.976 353.243 73.9573 354.352 75.28C355.504 76.6027 356.101 78.3307 356.144 80.464C356.144 82.384 355.611 84.112 354.544 85.648C353.477 87.184 351.963 88.4 350 89.296C348.08 90.1493 345.861 90.576 343.344 90.576Z" fill="white"/>
<path d="M129 30L137.532 56.2574H165.14L142.804 72.4853L151.336 98.7426L129 82.5147L106.664 98.7426L115.196 72.4853L92.8599 56.2574H120.468L129 30Z" fill="#FFD700"/>
</g>
<defs>
<linearGradient id="paint0_linear_36_88" x1="225.5" y1="0" x2="225.5" y2="136" gradientUnits="userSpaceOnUse">
<stop stop-color="#5B21B6"/>
<stop offset="1" stop-color="#7E22CE"/>
</linearGradient>
<clipPath id="clip0_36_88">
<rect width="451" height="136" fill="white"/>
</clipPath>
</defs>
</svg>
